<?xml version="1.0" encoding="UTF-8" standalone="no"?>
<svg
   xmlns:dc="http://purl.org/dc/elements/1.1/"
   xmlns:cc="http://creativecommons.org/ns#"
   xmlns:rdf="http://www.w3.org/1999/02/22-rdf-syntax-ns#"
   xmlns:svg="http://www.w3.org/2000/svg"
   xmlns="http://www.w3.org/2000/svg"
   viewBox="0 0 1265.1733 378.42667"
   height="378.42667"
   width="1265.1733"
   xml:space="preserve"
   id="svg2"
   version="1.1"><metadata
     id="metadata8"><rdf:RDF><cc:Work
         rdf:about=""><dc:format>image/svg+xml</dc:format><dc:type
           rdf:resource="http://purl.org/dc/dcmitype/StillImage" /></cc:Work></rdf:RDF></metadata><defs
     id="defs6" /><g
     transform="matrix(1.3333333,0,0,-1.3333333,0,378.42667)"
     id="g10"><g
       transform="scale(0.1)"
       id="g12"><path
         id="path14"
         style="fill:#231f20;fill-opacity:1;fill-rule:nonzero;stroke:none"
         d="m 4018.31,948.629 c 0,-86.469 -33.07,-119.527 -114.45,-119.527 h -287.39 v 295.008 h 287.39 c 81.38,0 114.45,-40.69 114.45,-119.53 z M 3903.86,1317.4 h -600.2 v -180.57 l 106.82,-15.26 V 399.289 h 205.99 V 635.82 h 287.39 c 236.52,0 317.91,119.532 317.91,305.18 v 71.21 c 0,175.48 -76.3,305.19 -317.91,305.19 z m 4432.86,0 h 76.29 V 399.289 h -206 V 1050.38 L 7782.29,399.289 H 7545.77 V 1317.4 h 206 V 689.09 l 310.27,480.8 c 78.85,122.08 147.51,147.51 274.68,147.51 z M 2522.89,2438.96 h 562.05 v -114.44 c 0,-91.56 -7.63,-167.85 -27.98,-236.52 h -175.48 v 157.68 h -358.59 c -106.82,0 -132.26,-27.98 -132.26,-144.97 v -241.6 c 0,-116.99 25.44,-144.97 132.26,-144.97 h 562.05 v -193.28 h -562.05 c -261.95,0 -338.25,76.29 -338.25,338.25 v 241.6 c 0,264.5 76.3,338.25 338.25,338.25 z m 5684.12,0 h 206 v -918.1 h -206 v 368.77 h -455.24 v -368.77 h -206 v 918.1 h 206 v -356.05 h 455.24 z M 2777.21,592.57 h -356.06 v 178.032 h 356.06 c 68.67,0 94.1,-33.063 94.1,-86.461 0,-53.411 -25.43,-91.571 -94.1,-91.571 z m 53.4,450.16 c 0,-55.96 -27.96,-86.468 -99.18,-86.468 h -310.28 v 165.308 h 310.28 c 71.22,0 99.18,-25.43 99.18,-78.84 z m 117.61,-158.269 c 48.28,29.469 88.4,92.098 88.4,188.789 0,124.62 -71.21,244.15 -282.3,244.15 H 2215.16 V 399.289 h 559.51 c 203.45,0 302.64,104.27 302.64,274.672 0,114.578 -65.8,182.109 -129.09,210.5 z M 6803.14,1317.4 h 567.14 v -114.45 c 0,-91.56 -7.62,-167.85 -27.98,-236.52 h -175.48 v 157.68 h -363.68 c -106.81,0 -132.24,-27.97 -132.24,-144.962 V 737.539 c 0,-116.988 25.43,-144.969 132.24,-144.969 h 567.14 V 399.289 h -567.14 c -261.95,0 -338.25,76.301 -338.25,338.25 v 241.609 c 0,264.502 76.3,338.252 338.25,338.252 z M 5066.11,737.539 c 0,-116.988 -25.43,-144.969 -132.24,-144.969 h -244.15 c -106.82,0 -132.25,27.981 -132.25,144.969 v 241.609 c 0,116.992 25.43,144.962 132.25,144.962 h 244.15 c 106.81,0 132.24,-27.97 132.24,-144.962 z M 4933.87,1317.4 h -244.15 c -261.96,0 -338.25,-73.75 -338.25,-338.252 V 737.539 c 0,-261.949 76.29,-338.25 338.25,-338.25 h 244.15 c 264.5,0 338.25,76.301 338.25,338.25 v 241.609 c 0,264.502 -73.75,338.252 -338.25,338.252 z m -1367.79,928.28 h 363.22 v -503.56 h -440.64 c 28.16,49.2 40.04,117.79 48.98,206 z m 569.21,193.28 h -750.25 l -45.77,-465.41 c -22.89,-221.26 -55.96,-256.86 -117,-256.86 h -12.71 v -282.3 h 195.83 l 7.63,116.99 h 605.29 l 7.63,-116.99 h 195.83 v 284.84 h -86.48 z M 5755.33,1317.4 h 564.6 v -114.45 c 0,-91.56 -7.63,-167.85 -27.98,-236.52 h -175.48 v 157.68 h -361.14 c -106.82,0 -132.25,-27.97 -132.25,-144.962 V 737.539 c 0,-116.988 25.43,-144.969 132.25,-144.969 h 564.6 V 399.289 h -564.6 c -261.95,0 -338.25,76.301 -338.25,338.25 v 241.609 c 0,264.502 76.3,338.252 338.25,338.252 z m 3527.46,541.71 c 0,-116.99 -25.43,-144.97 -132.24,-144.97 H 8924.2 c -106.82,0 -132.25,27.98 -132.25,144.97 v 241.6 c 0,116.99 25.43,144.97 132.25,144.97 h 226.35 c 106.81,0 132.24,-27.98 132.24,-144.97 z m -132.24,579.85 H 8924.2 c -261.96,0 -338.25,-73.75 -338.25,-338.25 v -241.6 c 0,-261.96 101.72,-338.25 363.68,-338.25 h 175.49 c 264.49,0 363.68,76.29 363.68,338.25 v 241.6 c 0,264.5 -73.75,338.25 -338.25,338.25 z M 4366.73,1859.11 v 241.6 c 0,264.5 73.75,338.25 338.25,338.25 h 539.16 V 2245.68 H 4694.8 c -106.81,0 -122.07,-17.8 -122.07,-134.79 v -30.52 h 521.36 v -190.74 h -521.36 v -40.7 c 0,-116.99 15.26,-134.79 122.07,-134.79 h 556.98 v -193.28 h -546.8 c -264.5,0 -338.25,76.29 -338.25,338.25 z m 2456.76,386.57 h 322.99 v -226.35 h -455.24 v 81.38 c 0,104.27 12.72,144.97 132.25,144.97 z m -132.25,-417.09 h 455.24 v -307.73 h 206 v 918.1 h -528.99 c -259.41,0 -338.25,-71.21 -338.25,-338.25 v -579.85 h 206 z M 1213.12,1317.4 h 206 V 399.289 H 760.43 c -264.504,0 -363.684,99.191 -363.684,363.68 V 1317.4 H 602.742 V 757.891 c 0,-117 45.781,-165.321 152.598,-165.321 h 457.78 z M 198.367,2639.88 H 1617.5 V 198.371 H 198.367 Z M 0,0.0117188 H 1815.87 V 2838.25 H 0 Z M 5376.4,1520.86 v 195.83 c 83.92,0 104.26,50.86 122.07,221.26 l 55.95,501.01 h 737.53 v -918.1 h -205.99 v 724.82 h -355.23 l -36.43,-350.97 c -30.52,-302.64 -111.91,-384.03 -317.9,-373.85 z M 9397.24,1317.4 h 76.29 V 399.289 H 9267.54 V 1050.38 L 8842.81,399.289 H 8606.3 V 1317.4 h 205.99 V 689.09 l 310.28,480.8 c 78.84,122.08 147.51,147.51 274.67,147.51 z M 1111.4,2037.13 H 602.742 v 208.55 H 1111.4 c 76.28,0 111.89,-40.7 111.89,-101.73 0,-61.04 -30.52,-106.82 -111.89,-106.82 z m 317.9,129.71 c 0,152.59 -73.75,272.12 -289.94,272.12 H 396.746 v -918.1 h 205.996 v 322.99 h 475.588 c 106.82,0 134.79,-30.52 134.79,-137.34 v -185.65 h 206 v 218.72 c 0,109.09 -38.7,173.09 -124.66,194.86 89.43,30.23 134.84,116.7 134.84,232.4" /></g></g></svg>